<svg xmlns="http://www.w3.org/2000/svg" xmlns:xlink="http://www.w3.org/1999/xlink" viewBox="0 0 163 152.6"><defs><style>.cls-1{fill:#7ca790;}.cls-2{clip-path:url(#clip-path);}.cls-3{fill:#bcada7;}.cls-4{clip-path:url(#clip-path-2);}</style><clipPath id="clip-path"><rect class="cls-1" x="81.21" width="81.79" height="152.6"/></clipPath><clipPath id="clip-path-2"><rect class="cls-1" width="81.79" height="152.6" transform="translate(81.79 152.6) rotate(-180)"/></clipPath></defs><title>Asset 4</title><g id="Layer_2" data-name="Layer 2"><g id="resources"><g id="tv_background_graphic" data-name="tv background graphic"><rect class="cls-1" x="81.21" width="81.79" height="152.6"/><g class="cls-2"><path id="tv_trace" data-name="tv trace" class="cls-3" d="M62.71,33.81l4.92-4.91L33,4.62l1.44-1.73L69.94,27.74A34.88,34.88,0,0,1,76,26a24.22,24.22,0,0,1,10.11,0,20.37,20.37,0,0,1,5.21,2L125.14,4.62l2.6,1.45L95.37,29.77,100,34.1,146,33.52l2.31,1.74c2.54,2.5,3.47,7.22,3.47,7.22l.58,91.62a10.14,10.14,0,0,1-1.74,4.62,9.57,9.57,0,0,1-3.75,2.6,46.09,46.09,0,0,1-8.39,0c-1.5-.19-2.67-.42-3.46.29s-.4,1.39-.87,2.6a6.94,6.94,0,0,1-4.91,3.76,7.33,7.33,0,0,1-4.92-.58c-2.86-1.5-4-5.49-4-5.49l-78.9.29a4.8,4.8,0,0,1-.58,2.89c-.19.29-.69.93-2.6,1.74S35.26,148,33.81,148c-2.22-.09-4.81-1.33-5.78-3.47a6.19,6.19,0,0,1-.57-2.31l-10.12-.29a11.42,11.42,0,0,1-4.62-2.6c-2.56-2.69-2.6-7.8-2.6-7.8l.28-88.15s.19-4.72,2.61-6.94c2-1.87,6.06-2,6.06-2Z"/></g><rect class="cls-1" width="81.79" height="152.6" transform="translate(81.79 152.6) rotate(-180)"/><g class="cls-4"><path id="tv_trace-2" data-name="tv trace" class="cls-3" d="M100.29,33.81,95.37,28.9,130.05,4.62l-1.44-1.73L93.06,27.74A34.88,34.88,0,0,0,87,26a24.22,24.22,0,0,0-10.11,0,20.37,20.37,0,0,0-5.21,2L37.86,4.62l-2.6,1.45,32.37,23.7L63,34.1l-45.95-.58-2.31,1.74c-2.54,2.5-3.47,7.22-3.47,7.22l-.58,91.62a10.14,10.14,0,0,0,1.74,4.62,9.57,9.57,0,0,0,3.75,2.6,46.09,46.09,0,0,0,8.39,0c1.5-.19,2.67-.42,3.46.29s.4,1.39.87,2.6A6.94,6.94,0,0,0,33.81,148a7.33,7.33,0,0,0,4.92-.58c2.86-1.5,4-5.49,4-5.49l78.9.29a4.8,4.8,0,0,0,.58,2.89c.19.29.69.93,2.6,1.74s2.89,1.21,4.34,1.15c2.22-.09,4.81-1.33,5.78-3.47a6.19,6.19,0,0,0,.57-2.31l10.12-.29a11.42,11.42,0,0,0,4.62-2.6c2.56-2.69,2.6-7.8,2.6-7.8l-.28-88.15s-.19-4.72-2.61-6.94c-2-1.87-6.06-2-6.06-2Z"/></g></g></g></g></svg>