<svg xmlns="http://www.w3.org/2000/svg" viewBox="0 0 385.92 298.32"><defs><style>.cls-1{fill:#070707;stroke:#f5f7f7;stroke-miterlimit:10;stroke-width:0.52px;}.cls-2{font-size:119.21px;fill:#efa40f;}.cls-2,.cls-4{font-family:Bauhaus93, "Bauhaus 93";}.cls-3{fill:#abc3c9;}.cls-4{font-size:123.96px;fill:#ddc085;}</style></defs><title>Asset 1</title><g id="Layer_2" data-name="Layer 2"><g id="_780" data-name="780"><g id="navigation"><g id="logo"><rect class="cls-1" x="3.47" y="10.33" width="382.19" height="264.44"/><text class="cls-2" transform="translate(0 99.36) scale(1.28 1)">weird</text><path class="cls-3" d="M45.38,156.28c-1.85,5-3.38,9.73-3.84,11.21H36.12c.16-.73.91-3,1.52-5-3.54,4.35-8.26,5.69-14.53,5.69-5.22,0-14.09-1-10.26-11.56l12.38-34.52H30.8L18.72,155.76c-2.43,6.65-.45,9.35,5.93,9.35,5.79,0,12.73-2.18,16.82-13.75l10.41-29.23H57.6Z"/><path class="cls-3" d="M67.72,135.75c3.21-9,4.13-11.71,4.74-13.62h5.27a48.6,48.6,0,0,1-1.52,5c3.66-3.69,8.25-5.68,15.43-5.68,6.8,0,13.48,2.31,10.58,10.36L89.38,167.49H83.81l12.53-35.14c1.68-4.71,1.19-7.85-6.54-7.85-7.29,0-13.78,3.69-17.26,13.49L62,167.49H56.4Z"/><path class="cls-3" d="M110.45,154.93l-.47,1.55c-1.67,5.48.58,8.74,8.93,8.74,5.61,0,9.24-1.72,11.21-7.1,2.28-6.13,0-9.47-7-13.45-8.44-4.82-11.79-7.56-9.8-14.09s7.69-9.17,15.85-9.17c12.58,0,14.36,6.06,12.66,11.28l-.61,1.81h-5.4l.61-2.17c1.22-4.52,0-7.93-8-7.93-4.55,0-8.33,1.81-9.69,6.65-1.21,4.49.14,6.65,7.16,10.63,10.11,5.82,12.57,9.19,9.82,17.06-2.75,7.43-9.63,9.47-17.39,9.47-13.4,0-16-5.64-13.71-12.38l.31-.9Z"/><path class="cls-3" d="M154.9,144.77c-.75,2-2,5.65-2.9,8.14-2.42,6.91-2,12.3,7.28,12.3,7.75,0,10.47-3.79,12.58-9.26l.46-1.18h5.57l-.61,1.44c-2.3,5.29-4.93,12-18.63,12-15.09,0-14.8-7.91-12.05-15.71l6-16.84c2.45-7.08,6.28-14.25,19.54-14.25,15.23,0,15,8.15,12.81,14.09-.75,2.05-2.47,7-3.37,9.27Zm22.33-3c.6-1.78,2-5.45,2.59-7.14,2-5.57,0-10.24-8.18-10.24-9.24,0-11.82,6.61-13.35,11L156,141.78Z"/><path class="cls-3" d="M194.94,122.13h9.16l4.43-11.95H214l-4.28,11.95H221.1l-1.11,3H208.56l-12.5,34.49c-1.36,4-.31,5.49,4.58,5.49a44,44,0,0,0,6.09-.45l-1.1,2.9a34.78,34.78,0,0,1-6.79.46c-5.9,0-10.67-1.81-8.51-7.75L203,125.14h-9.15Z"/><path class="cls-3" d="M219.56,122.13h9.15l4.44-11.95h5.41l-4.28,11.95h11.43l-1.11,3H233.17l-12.5,34.49c-1.36,4-.3,5.49,4.58,5.49a44,44,0,0,0,6.09-.45l-1.1,2.9a34.72,34.72,0,0,1-6.79.46c-5.9,0-10.66-1.81-8.51-7.75l12.66-35.14h-9.15Z"/><path class="cls-3" d="M238.61,167.49l22.63-63.27h5.57l-22.63,63.27Z"/><path class="cls-3" d="M275.78,122.13h5.57l-16.22,45.36h-5.57Zm6.41-17.91h5.56L284.69,113h-5.57Z"/><path class="cls-3" d="M292.28,135.75c3.21-9,4.13-11.71,4.74-13.62h5.27a48.6,48.6,0,0,1-1.52,5c3.66-3.69,8.25-5.68,15.43-5.68,6.8,0,13.48,2.31,10.58,10.36l-12.84,35.72h-5.57l12.53-35.14c1.67-4.71,1.19-7.85-6.54-7.85-7.29,0-13.78,3.69-17.27,13.49l-10.56,29.5H281Z"/><path class="cls-3" d="M360.43,167.93c-3.07,8.85-5.35,15.7-21.09,15.7-13.72,0-15.43-5.9-14-10l.15-.45h5.73l-.16.54c-.75,2.7-.46,6.93,8.94,6.93s11.7-3.84,14.59-11.86l2.42-6.72c-2.9,3.07-5.84,5.41-13.6,5.41-12.12,0-13.64-6.63-11.34-12.91l7.46-20.84c2.29-6.34,7.16-12.3,18.72-12.3,7.35,0,11.15,2.8,11.47,5.5a43.22,43.22,0,0,1,2-4.78h5.41c-.93,2.19-2.6,6.62-4.74,12.58Zm-15.51-33.71-7.16,20.32c-1.83,5.15-1.52,9.83,6.83,9.83,10.76,0,14.54-8.6,17.13-15.29l3.55-9.34c2.57-6.83,4.22-15.24-7.44-15.24C349.48,124.5,346.6,129.44,344.92,134.22Z"/><text class="cls-4" transform="translate(4.13 267.33) scale(1.47 1)">films</text></g></g></g></g></svg>